<?xml version="1.0" encoding="UTF-8"?>
<svg xmlns="http://www.w3.org/2000/svg" viewBox="0 0 500 500">
  <defs>
    <style>
      .cls-1 {
        fill: #e5f1ff;
      }

      .cls-1, .cls-2, .cls-3, .cls-4, .cls-5, .cls-6, .cls-7, .cls-8, .cls-9, .cls-10, .cls-11, .cls-12, .cls-13, .cls-14 {
        stroke-width: 0px;
      }

      .cls-15, .cls-16, .cls-17, .cls-18, .cls-19, .cls-20, .cls-21, .cls-22 {
        fill: none;
      }

      .cls-15, .cls-16, .cls-17, .cls-18, .cls-22, .cls-23 {
        stroke-width: 1.13px;
      }

      .cls-15, .cls-17, .cls-24, .cls-20, .cls-21, .cls-22, .cls-23 {
        stroke-miterlimit: 10;
      }

      .cls-15, .cls-18 {
        stroke: #289df2;
      }

      .cls-16 {
        stroke-dasharray: 0 0 0 5.64;
      }

      .cls-16, .cls-17 {
        stroke: #ff4d6b;
      }

      .cls-16, .cls-18, .cls-19 {
        stroke-linecap: round;
        stroke-linejoin: round;
      }

      .cls-25, .cls-26 {
        letter-spacing: .06em;
      }

      .cls-2, .cls-24, .cls-23 {
        fill: #289df2;
      }

      .cls-3 {
        fill: #284d89;
      }

      .cls-4 {
        fill: #282e5c;
      }

      .cls-5 {
        fill: #a9ccea;
      }

      .cls-27 {
        letter-spacing: .05em;
      }

      .cls-6 {
        fill: #28385e;
      }

      .cls-26 {
        font-family: BebasNeueBook, BebasNeueBook;
      }

      .cls-26, .cls-8, .cls-28 {
        fill: #f7f7f7;
      }

      .cls-26, .cls-28 {
        font-size: 8.12px;
      }

      .cls-7 {
        fill: #0f3775;
      }

      .cls-9 {
        fill: #287dd1;
      }

      .cls-10 {
        fill: #2889db;
      }

      .cls-24 {
        stroke-width: .56px;
      }

      .cls-24, .cls-22, .cls-23 {
        stroke: #fff;
      }

      .cls-19 {
        stroke: #284d89;
        stroke-width: 2.26px;
      }

      .cls-20 {
        stroke: #f7f7f7;
        stroke-width: .25px;
      }

      .cls-11 {
        fill: #fff;
      }

      .cls-12 {
        fill: #ff4d6b;
      }

      .cls-21 {
        stroke: #ff5c66;
        stroke-width: 1.02px;
      }

      .cls-13 {
        fill: #f9fbfc;
      }

      .cls-14 {
        fill: #1ae5ff;
      }

      .cls-28 {
        font-family: BebasNeueRegular, BebasNeueRegular;
      }
    </style>
  </defs>
  <g id="BACKGROUND">
    <rect class="cls-11" width="500" height="500"/>
  </g>
  <g id="OBJECTS">
    <g>
      <circle class="cls-1" cx="366.12" cy="170.07" r="85.82"/>
      <circle class="cls-1" cx="145" cy="350.99" r="50.16" transform="translate(-205.72 205.33) rotate(-45)"/>
      <g>
        <path class="cls-5" d="m144.33,112.86c-25.33,0-45.86,20.53-45.86,45.86s20.53,45.86,45.86,45.86,45.86-20.53,45.86-45.86-20.53-45.86-45.86-45.86Zm0,75.17c-16.19,0-29.32-13.13-29.32-29.32s13.13-29.32,29.32-29.32,29.32,13.13,29.32,29.32-13.13,29.32-29.32,29.32Z"/>
        <rect class="cls-12" x="233.79" y="367.33" width="21.8" height="6.39"/>
        <path class="cls-16" d="m418.26,345.7c-3.79,1.46-7.91,2.25-12.21,2.25-18.83,0-34.09-15.26-34.09-34.09s15.26-34.09,34.09-34.09,34.09,15.26,34.09,34.09c0,5.05-1.1,9.83-3.06,14.14"/>
        <path class="cls-2" d="m322,153.81h-5.44c-1.13-4.84-3.03-9.37-5.58-13.47l3.85-3.85c1.66-1.66,1.66-4.35,0-6.01l-8.55-8.55c-1.66-1.66-4.35-1.66-6.01,0l-3.85,3.85c-4.1-2.55-8.64-4.45-13.47-5.58v-5.44c0-2.35-1.9-4.25-4.25-4.25h-12.09c-2.35,0-4.25,1.9-4.25,4.25v5.44c-4.84,1.13-9.37,3.03-13.47,5.58l-3.85-3.85c-1.66-1.66-4.35-1.66-6.01,0l-8.55,8.55c-1.66,1.66-1.66,4.35,0,6.01l3.85,3.85c-2.55,4.1-4.45,8.64-5.58,13.47h-5.44c-2.35,0-4.25,1.9-4.25,4.25v12.09c0,2.35,1.9,4.25,4.25,4.25h5.44c1.13,4.84,3.03,9.37,5.58,13.47l-3.85,3.85c-1.66,1.66-1.66,4.35,0,6.01l8.55,8.55c1.66,1.66,4.35,1.66,6.01,0l3.85-3.85c4.1,2.55,8.64,4.45,13.47,5.58v5.44c0,2.35,1.9,4.25,4.25,4.25h12.09c2.35,0,4.25-1.9,4.25-4.25v-5.44c4.84-1.13,9.37-3.03,13.47-5.58l3.85,3.85c1.66,1.66,4.35,1.66,6.01,0l8.55-8.55c1.66-1.66,1.66-4.35,0-6.01l-3.85-3.85c2.55-4.1,4.45-8.64,5.58-13.47h5.44c2.35,0,4.25-1.9,4.25-4.25v-12.09c0-2.35-1.9-4.25-4.25-4.25Zm-49.34,31.86c-11.91,0-21.57-9.66-21.57-21.57s9.66-21.57,21.57-21.57,21.57,9.66,21.57,21.57-9.66,21.57-21.57,21.57Z"/>
        <path class="cls-7" d="m156.05,102.01h179.46c6.33,0,11.47,5.14,11.47,11.47v299.55c0,6.33-5.14,11.47-11.47,11.47h-179.46c-6.33,0-11.47-5.14-11.47-11.47V113.48c0-6.33,5.14-11.47,11.47-11.47Z" transform="translate(509.04 17.47) rotate(90)"/>
        <rect class="cls-3" x="108.06" y="187.09" width="33.26" height="7.33"/>
        <rect class="cls-3" x="148.09" y="187.09" width="33.26" height="7.33"/>
        <rect class="cls-3" x="249.57" y="187.09" width="33.26" height="7.33"/>
        <rect class="cls-3" x="351.06" y="187.09" width="33.26" height="7.33"/>
        <rect class="cls-12" x="185.86" y="187.09" width="59.48" height="7.33"/>
        <rect class="cls-10" x="286.79" y="187.09" width="59.48" height="7.33"/>
        <rect class="cls-10" x="108.25" y="181.27" width="5.83" height="3.57"/>
        <g>
          <rect class="cls-11" x="108.25" y="200.44" width="60.8" height="3.57"/>
          <rect class="cls-11" x="108.25" y="206.73" width="18.04" height="3.57"/>
        </g>
        <path class="cls-3" d="m116.23,221.49h56.38c4.2,0,7.61,3.41,7.61,7.61v102.05c0,4.2-3.41,7.61-7.61,7.61h-56.38c-4.2,0-7.61-3.41-7.61-7.61v-102.05c0-4.2,3.41-7.61,7.61-7.61Z"/>
        <g>
          <rect class="cls-11" x="117.64" y="238.68" width="23.96" height="3.66"/>
          <rect class="cls-11" x="117.64" y="246.86" width="23.96" height="3.66"/>
          <rect class="cls-11" x="117.64" y="255.03" width="23.96" height="3.66"/>
        </g>
        <rect class="cls-11" x="117.64" y="289.14" width="14.66" height="3.66"/>
        <rect class="cls-11" x="117.64" y="297.32" width="14.66" height="3.66"/>
        <rect class="cls-11" x="142.83" y="297.32" width="14.66" height="3.66"/>
        <rect class="cls-11" x="117.64" y="279.84" width="9.21" height="3.66"/>
        <rect class="cls-11" x="157.11" y="279.84" width="4.89" height="3.66"/>
        <rect class="cls-12" x="130.05" y="279.84" width="25.18" height="3.66"/>
        <rect class="cls-10" x="117.64" y="266.03" width="3.52" height="3.66"/>
        <rect class="cls-12" x="117.64" y="272.51" width="3.52" height="3.66"/>
        <polygon class="cls-11" points="137.19 301.74 135.87 301.74 139.02 297.04 140.34 297.04 137.19 301.74"/>
        <rect class="cls-4" x="117.64" y="308.03" width="54.41" height="3.1"/>
        <rect class="cls-4" x="117.64" y="315.08" width="54.41" height="3.1"/>
        <rect class="cls-2" x="277.39" y="215.85" width="163.13" height="54.13" rx="6.77" ry="6.77"/>
        <path class="cls-22" d="m325.88,250.8s8.27-20.3,31.95-15.41c23.68,4.89,35.71,31.57,66.15,9.77"/>
        <rect class="cls-23" x="399.17" y="251.93" width="3.38" height="3.38"/>
        <line class="cls-24" x1="330.01" y1="234.45" x2="372.86" y2="234.45"/>
        <line class="cls-24" x1="379.44" y1="254.56" x2="422.29" y2="254.56"/>
        <rect class="cls-23" x="348.05" y="232.76" width="3.38" height="3.38"/>
        <g>
          <rect class="cls-3" x="268.74" y="225.62" width="42.1" height="58.26" rx="4.89" ry="4.89"/>
          <g>
            <g>
              <rect class="cls-11" x="275.32" y="233.89" width="23.96" height="3.3"/>
              <rect class="cls-11" x="275.32" y="241.26" width="23.96" height="3.3"/>
              <rect class="cls-11" x="275.32" y="248.63" width="9.02" height="3.3"/>
            </g>
            <g>
              <rect class="cls-2" x="275.32" y="256.25" width="15.6" height="3.3"/>
              <rect class="cls-2" x="275.32" y="263.62" width="10.52" height="3.3"/>
              <rect class="cls-11" x="275.32" y="270.99" width="10.52" height="3.3"/>
            </g>
          </g>
        </g>
        <line class="cls-19" x1="414.21" y1="208.52" x2="431.12" y2="208.52"/>
        <g>
          <path class="cls-21" d="m376.2,303.96l-5.84,4.57-8.38,1.52s-7.87-.51-8.63-.51-6.09-4.31-6.09-4.31l-9.9-3.55-6.85,2.54-8.12-1.78-12.18-.76-11.68,4.57-9.64,1.52-8.63,2.79-9.64.76-10.41-8.12-9.64-1.78-9.9,5.58-7.87,2.54-8.93-.25-11.26,6.85h-6.71l-11.34,3.98"/>
          <g>
            <line class="cls-20" x1="194.73" y1="320.29" x2="376.46" y2="320.29"/>
            <rect class="cls-8" x="192.95" y="318" width="1.86" height="4.57"/>
            <rect class="cls-8" x="375.36" y="318" width="1.86" height="4.57"/>
          </g>
          <line class="cls-20" x1="376.29" y1="320.29" x2="376.29" y2="304.97"/>
          <path class="cls-8" d="m377.3,304.21c0,.79-.64,1.44-1.44,1.44s-1.44-.64-1.44-1.44.64-1.44,1.44-1.44,1.44.64,1.44,1.44Z"/>
          <text class="cls-28" transform="translate(194.98 331)"><tspan class="cls-25" x="0" y="0">beta </tspan><tspan class="cls-27" x="19.45" y="0">t</tspan><tspan class="cls-25" x="22.58" y="0">est</tspan></text>
          <rect class="cls-6" x="236.69" y="326.89" width="113.03" height="2.03"/>
          <rect class="cls-12" x="236.69" y="326.89" width="69.38" height="2.03"/>
          <rect class="cls-6" x="236.69" y="330.78" width="55.58" height="2.03"/>
          <g>
            <polygon class="cls-12" points="201.45 336.83 208.31 336.83 209.19 334.92 195.36 334.92 195.36 338.1 200.18 338.1 201.45 336.83"/>
            <rect class="cls-8" x="214.89" y="334.9" width=".76" height=".76"/>
            <rect class="cls-8" x="219.62" y="334.9" width=".76" height=".76"/>
            <rect class="cls-8" x="224.35" y="334.9" width=".76" height=".76"/>
          </g>
          <text class="cls-26" transform="translate(367.4 299.14)"><tspan x="0" y="0">500</tspan></text>
          <g>
            <polygon class="cls-6" points="357.84 332.98 356.15 332.98 353.44 326.89 355.14 326.89 357.84 332.98"/>
            <polygon class="cls-6" points="362.24 332.98 360.55 332.98 357.84 326.89 359.53 326.89 362.24 332.98"/>
            <polygon class="cls-6" points="366.64 332.98 364.95 332.98 362.24 326.89 363.93 326.89 366.64 332.98"/>
            <polygon class="cls-6" points="371.04 332.98 369.35 332.98 366.64 326.89 368.33 326.89 371.04 332.98"/>
            <polygon class="cls-6" points="375.36 332.98 373.66 332.98 370.96 326.89 372.65 326.89 375.36 332.98"/>
          </g>
        </g>
        <g>
          <rect class="cls-5" x="340.5" y="123.25" width="27.51" height="4.93"/>
          <rect class="cls-5" x="340.5" y="132.07" width="41.48" height="4.93"/>
          <rect class="cls-5" x="340.5" y="140.89" width="51.16" height="4.93"/>
          <rect class="cls-5" x="340.5" y="149.71" width="19.56" height="4.93"/>
        </g>
        <g>
          <rect class="cls-10" x="51.83" y="182.64" width="27.51" height="4.93"/>
          <rect class="cls-5" x="51.83" y="191.46" width="41.48" height="4.93"/>
          <rect class="cls-5" x="51.83" y="200.28" width="51.16" height="4.93"/>
          <rect class="cls-5" x="51.83" y="209.09" width="19.56" height="4.93"/>
        </g>
        <rect class="cls-15" x="120.46" y="355.67" width="117.27" height="15.22"/>
        <rect class="cls-15" x="177.03" y="235.77" width="5.64" height="34.58"/>
        <g>
          <circle class="cls-12" cx="406.05" cy="313.86" r="19.43" transform="translate(-44.79 68.65) rotate(-9.16)"/>
          <g>
            <path class="cls-13" d="m404.64,312.04l-7.72,2.83,7.72,2.8v2.9l-11.03-4.2v-3.01l11.03-4.19v2.87Z"/>
            <path class="cls-13" d="m407.16,309.17l11.03,4.19v3.01l-11.03,4.2v-2.9l7.72-2.8-7.72-2.83v-2.87Z"/>
          </g>
        </g>
        <path class="cls-17" d="m438.45,329.74c0,1.4-1.14,2.54-2.54,2.54s-2.54-1.14-2.54-2.54,1.14-2.54,2.54-2.54,2.54,1.14,2.54,2.54Z"/>
        <rect class="cls-15" x="114.26" y="145.94" width="91.9" height="9.58"/>
        <rect class="cls-2" x="118.21" y="149.04" width="56.94" height="2.82"/>
        <g>
          <rect class="cls-3" x="192.44" y="220.73" width="67.28" height="3.38"/>
          <rect class="cls-10" x="192.44" y="220.73" width="30.49" height="3.38"/>
        </g>
        <g>
          <rect class="cls-3" x="192.44" y="229.47" width="67.28" height="3.38"/>
          <rect class="cls-12" x="192.44" y="229.47" width="46.84" height="3.38"/>
        </g>
        <g>
          <rect class="cls-3" x="192.44" y="238.21" width="67.28" height="3.38"/>
          <rect class="cls-14" x="192.44" y="238.21" width="13.72" height="3.38"/>
        </g>
        <g>
          <rect class="cls-3" x="192.72" y="214.81" width="1.32" height="1.32"/>
          <rect class="cls-3" x="197.23" y="214.81" width="1.32" height="1.32"/>
          <rect class="cls-3" x="201.74" y="214.81" width="1.32" height="1.32"/>
        </g>
        <g>
          <rect class="cls-11" x="317.92" y="260.89" width="2.19" height="2.19"/>
          <rect class="cls-11" x="325.44" y="260.89" width="2.19" height="2.19"/>
          <rect class="cls-11" x="332.96" y="260.89" width="2.19" height="2.19"/>
        </g>
        <g>
          <rect class="cls-11" x="349.57" y="173.76" width="4.11" height="4.11"/>
          <rect class="cls-11" x="363.66" y="173.76" width="4.11" height="4.11"/>
          <rect class="cls-11" x="377.76" y="173.76" width="4.11" height="4.11"/>
        </g>
        <g>
          <rect class="cls-11" x="291.31" y="343.66" width="4.11" height="4.11"/>
          <rect class="cls-11" x="305.4" y="343.66" width="4.11" height="4.11"/>
          <rect class="cls-11" x="319.5" y="343.66" width="4.11" height="4.11"/>
        </g>
        <g>
          <rect class="cls-11" x="118.83" y="229.82" width="2.19" height="2.19"/>
          <rect class="cls-11" x="126.35" y="229.82" width="2.19" height="2.19"/>
          <rect class="cls-11" x="133.87" y="229.82" width="2.19" height="2.19"/>
        </g>
        <g>
          <rect class="cls-11" x="389.77" y="227.12" width="36.46" height="3.57"/>
          <rect class="cls-9" x="389.77" y="233.42" width="10.82" height="3.57"/>
        </g>
        <polygon class="cls-14" points="95.65 234.45 87.76 234.45 87.76 226.56 80.43 226.56 80.43 234.45 72.54 234.45 72.54 241.78 80.43 241.78 80.43 249.68 87.76 249.68 87.76 241.78 95.65 241.78 95.65 234.45"/>
        <polygon class="cls-10" points="74.53 256.44 69.72 256.44 69.72 251.63 65.25 251.63 65.25 256.44 60.44 256.44 60.44 260.91 65.25 260.91 65.25 265.73 69.72 265.73 69.72 260.91 74.53 260.91 74.53 256.44"/>
        <g>
          <path class="cls-3" d="m206.27,252.24c-6.82,0-12.34,5.53-12.34,12.34s5.53,12.34,12.34,12.34,12.34-5.53,12.34-12.34-5.53-12.34-12.34-12.34Zm0,18.78c-3.55,0-6.43-2.88-6.43-6.43s2.88-6.43,6.43-6.43,6.43,2.88,6.43,6.43-2.88,6.43-6.43,6.43Z"/>
          <path class="cls-2" d="m197.86,263.37c1.15,0,2.15-.68,2.67-1.7,1.06-2.08,3.23-3.51,5.73-3.51s4.67,1.43,5.73,3.51c.52,1.02,1.53,1.7,2.67,1.7h0c2.16,0,3.64-2.26,2.69-4.2-2.01-4.1-6.22-6.92-11.09-6.92s-9.08,2.82-11.09,6.92c-.95,1.94.53,4.2,2.69,4.2h0Z"/>
        </g>
        <g>
          <path class="cls-3" d="m227,264.58c0,6.82,5.53,12.34,12.34,12.34s12.34-5.53,12.34-12.34-5.53-12.34-12.34-12.34-12.34,5.53-12.34,12.34Zm18.78,0c0,3.55-2.88,6.43-6.43,6.43s-6.43-2.88-6.43-6.43,2.88-6.43,6.43-6.43,6.43,2.88,6.43,6.43Z"/>
          <path class="cls-12" d="m238.13,272.99c0-1.15-.68-2.15-1.7-2.67-2.08-1.06-3.51-3.23-3.51-5.73s1.43-4.67,3.51-5.73c1.02-.52,1.7-1.53,1.7-2.67h0c0-2.16-2.26-3.64-4.2-2.69-4.1,2.01-6.92,6.22-6.92,11.09s2.82,9.08,6.92,11.09c1.94.95,4.2-.53,4.2-2.69h0Z"/>
        </g>
        <rect class="cls-15" x="148.46" y="215.85" width="22.55" height="54.13"/>
        <g>
          <rect class="cls-14" x="151.66" y="226.28" width="6.58" height="1.94"/>
          <rect class="cls-14" x="151.66" y="230.62" width="6.58" height="1.94"/>
          <rect class="cls-14" x="151.66" y="234.95" width="6.58" height="1.94"/>
          <rect class="cls-14" x="151.66" y="257.51" width="6.58" height="1.94"/>
        </g>
        <g>
          <rect class="cls-14" x="151.66" y="241.31" width="9.58" height="1.94"/>
          <rect class="cls-11" x="151.66" y="245.65" width="9.58" height="1.94"/>
          <rect class="cls-11" x="151.66" y="249.99" width="9.58" height="1.94"/>
        </g>
        <rect class="cls-2" x="67.65" y="283.51" width="28.57" height="28.57"/>
        <rect class="cls-15" x="52.62" y="290.27" width="28.57" height="28.57"/>
        <rect class="cls-15" x="407.44" y="366.2" width="12.03" height="12.03"/>
        <g>
          <polyline class="cls-22" points="263.11 347.22 273.25 347.22 278.89 352.85 337.53 352.85 346.55 343.83 378.12 343.83"/>
          <circle class="cls-22" cx="260.15" cy="347.36" r="2.96"/>
          <circle class="cls-22" cx="381.18" cy="343.69" r="2.96"/>
        </g>
        <path class="cls-2" d="m420.97,188.03c0,2.08-1.68,3.76-3.76,3.76s-3.76-1.68-3.76-3.76,1.68-3.76,3.76-3.76,3.76,1.68,3.76,3.76Z"/>
        <path class="cls-12" d="m73.67,334.62c0,2.08-1.68,3.76-3.76,3.76s-3.76-1.68-3.76-3.76,1.68-3.76,3.76-3.76,3.76,1.68,3.76,3.76Z"/>
        <path class="cls-12" d="m90.96,348.53c0,3.63-2.94,6.58-6.58,6.58s-6.58-2.94-6.58-6.58,2.95-6.58,6.58-6.58,6.58,2.95,6.58,6.58Z"/>
        <g>
          <rect class="cls-15" x="288.66" y="370.71" width="26.31" height="6.01"/>
          <rect class="cls-15" x="288.66" y="381.98" width="57.7" height="6.01"/>
        </g>
        <g>
          <line class="cls-18" x1="127.48" y1="376.47" x2="121.1" y2="382.84"/>
          <line class="cls-18" x1="133.61" y1="376.47" x2="127.24" y2="382.84"/>
          <line class="cls-18" x1="139.74" y1="376.47" x2="133.37" y2="382.84"/>
          <line class="cls-18" x1="145.88" y1="376.47" x2="139.5" y2="382.84"/>
          <line class="cls-18" x1="152.01" y1="376.47" x2="145.63" y2="382.84"/>
        </g>
      </g>
    </g>
  </g>
</svg>