<?xml version="1.0" encoding="UTF-8"?>
<svg id="OBJECTS" xmlns="http://www.w3.org/2000/svg" viewBox="0 0 134.36 95.45">
  <defs>
    <style>
      .cls-1 {
        letter-spacing: -.02em;
      }

      .cls-1, .cls-2, .cls-3, .cls-4 {
        fill: #00d6c4;
      }

      .cls-3, .cls-5 {
        stroke-width: 0px;
      }

      .cls-6 {
        letter-spacing: 0em;
      }

      .cls-6, .cls-5 {
        fill: #0f2642;
      }

      .cls-7 {
        font-family: ArialRoundedMTBold, 'Arial Rounded MT Bold';
        font-size: 14.79px;
      }

      .cls-4 {
        letter-spacing: -.04em;
      }
    </style>
  </defs>
  <g>
    <g>
      <path class="cls-5" d="m118.04,22.06c1.78.83,1.86,3.33.13,4.27l-32.77,17.84-13.63,7.42c-2.05,1.12-4.32-1.07-3.28-3.16l10.73-21.61c.34-.69.33-1.5-.03-2.18l-11.16-21.1c-1.07-2.02,1.04-4.25,3.12-3.28l46.88,21.82Z"/>
      <path class="cls-3" d="m84.55,66.81c-.85,0-1.68-.33-2.33-.96-1.09-1.05-1.36-2.6-.68-3.95l10.73-21.61c.2-.4.19-.87-.02-1.27l-11.16-21.1c-.69-1.31-.48-2.85.54-3.92,1.02-1.07,2.54-1.36,3.89-.74l46.88,21.82c1.17.54,1.92,1.68,1.96,2.97.04,1.29-.64,2.47-1.77,3.08l-46.4,25.25c-.52.29-1.08.42-1.64.42Zm-.48-51.88c-.41,0-.77.2-1,.44-.33.35-.57.96-.22,1.61l11.16,21.1c.51.96.52,2.12.04,3.09l-10.73,21.61c-.33.67-.07,1.28.28,1.62.36.34.97.58,1.63.22l46.4-25.25c.47-.26.74-.73.72-1.26-.02-.54-.32-.99-.8-1.22l-46.88-21.82c-.21-.1-.41-.14-.6-.14Z"/>
      <path class="cls-5" d="m15.38,47.18c-1.78.83-1.86,3.33-.13,4.27l32.77,17.84,13.63,7.42c2.05,1.12,4.32-1.07,3.28-3.16l-10.73-21.61c-.34-.69-.33-1.5.03-2.18l11.16-21.1c1.07-2.02-1.04-4.25-3.12-3.28L15.38,47.18Z"/>
      <path class="cls-3" d="m49.8,63.05c-.55,0-1.11-.14-1.64-.42L1.77,37.38C.64,36.76-.04,35.58,0,34.29c.04-1.29.79-2.42,1.96-2.97L48.84,9.5c1.34-.62,2.87-.34,3.89.74,1.02,1.07,1.23,2.61.54,3.92l-11.16,21.1c-.21.39-.21.87-.02,1.27l10.73,21.61c.67,1.35.4,2.9-.68,3.95-.66.63-1.49.96-2.34.96Zm.48-51.88c-.19,0-.39.04-.6.14L2.8,33.14c-.49.23-.79.68-.8,1.22-.02.54.25,1.01.72,1.26l46.4,25.26c.66.36,1.27.12,1.63-.22.35-.34.61-.95.28-1.62l-10.73-21.61c-.48-.97-.47-2.13.04-3.09l11.16-21.1c.34-.65.11-1.26-.22-1.61-.23-.24-.58-.44-1-.44Z"/>
    </g>
    <path class="cls-5" d="m61.02,52.66c-.22,0-.45-.05-.66-.15-.74-.36-1.05-1.26-.69-2.01l12.54-25.68c.36-.74,1.26-1.05,2.01-.69.74.36,1.05,1.26.69,2.01l-12.54,25.68c-.26.53-.79.84-1.35.84Z"/>
  </g>
  <text class="cls-7" transform="translate(26.27 92.33)"><tspan class="cls-4" x="0" y="0">F</tspan><tspan class="cls-1" x="8.37" y="0">r</tspan><tspan class="cls-2" x="14.48" y="0">ans</tspan><tspan class="cls-6" x="40.21" y="0" xml:space="preserve"> Code</tspan></text>
</svg>