<?xml version="1.0" encoding="UTF-8"?>
<svg id="OBJECTS" xmlns="http://www.w3.org/2000/svg" viewBox="0 0 188.59 204.63">
  <defs>
    <style>
      .cls-1 {
        fill: #3f2716;
      }

      .cls-1, .cls-2, .cls-3, .cls-4, .cls-5, .cls-6, .cls-7, .cls-8, .cls-9, .cls-10, .cls-11, .cls-12, .cls-13, .cls-14 {
        fill-rule: evenodd;
        stroke-width: 0px;
      }

      .cls-2 {
        fill: #141632;
      }

      .cls-3 {
        fill: #d67f54;
      }

      .cls-4 {
        fill: #623a1c;
      }

      .cls-5 {
        fill: #4e2c0b;
      }

      .cls-6 {
        fill: #29273f;
      }

      .cls-7 {
        fill: #413962;
      }

      .cls-8 {
        fill: #d0ced2;
      }

      .cls-9 {
        fill: #3d3d3c;
      }

      .cls-10 {
        fill: #7ea2d5;
      }

      .cls-11 {
        fill: #e4ae7c;
      }

      .cls-12 {
        fill: #20201e;
      }

      .cls-13 {
        fill: #232221;
      }

      .cls-14 {
        fill: #da9077;
      }
    </style>
  </defs>
  <path class="cls-10" d="m112.12,21.06l69.12,69.12c9.8,9.8,9.8,25.85,0,35.65l-69.12,69.12c-9.8,9.8-25.85,9.8-35.65,0L7.35,125.83c-9.8-9.8-9.8-25.85,0-35.65L76.47,21.06c9.8-9.81,25.85-9.81,35.65,0Z"/>
  <g>
    <path class="cls-11" d="m93.77,203.89H22.79c-.82-36.3,27.11-57.37,51.08-65.23,1.95-10.13,1.45-23.26,1.45-23.26h36.9s-.5,13.14,1.45,23.26c23.98,7.86,51.91,28.93,51.09,65.23h-70.98Z"/>
    <path class="cls-8" d="m111.39,145.77c-9.88,13.76-25.37,13.49-35.07-.07l-3.58,1.4-7.36,18.26v38.53h57.83v-38.53l-8.41-18.26-3.4-1.33Z"/>
    <path class="cls-11" d="m54.7,86.28c-.17-1.9-7.94-4.14-10.52,2.07-2.59,6.21,2.07,15.01,10.87,15.7,8.8.69,6.21-.86,6.21-.86l-6.55-16.91Z"/>
    <path class="cls-11" d="m133.03,86.28c.17-1.9,7.93-4.14,10.52,2.07,2.59,6.21-2.07,15.01-10.87,15.7-8.8.69-6.21-.86-6.21-.86l6.56-16.91Z"/>
    <path class="cls-3" d="m112.45,128.42c-7.99,15.28-28.56,16.87-37.39.59.23-3.33.31-6.47.32-8.89h36.79c.01,2.28.08,5.19.28,8.3Z"/>
    <path class="cls-11" d="m93.77,128.11c-45.77,1.1-68.88-111.78,0-108.89,68.88-2.89,45.77,109.98,0,108.89Z"/>
    <path class="cls-12" d="m78.39,75.71c1.84,1.33,2.25,3.89.92,5.72-1.33,1.83-3.9,2.25-5.73.92-1.84-1.33-2.25-3.89-.92-5.72,1.33-1.83,3.9-2.25,5.73-.92Z"/>
    <path class="cls-12" d="m109.4,75.71c-1.84,1.33-2.25,3.89-.92,5.72,1.33,1.83,3.9,2.25,5.73.92,1.84-1.33,2.25-3.89.92-5.72-1.33-1.83-3.9-2.25-5.73-.92Z"/>
    <path class="cls-14" d="m73.34,90.6c2.34,1.79,2.44,4.42.23,5.87-2.21,1.45-5.9,1.17-8.23-.63-2.34-1.79-2.44-4.42-.23-5.87,2.21-1.45,5.9-1.17,8.23.63Z"/>
    <path class="cls-14" d="m114.46,90.6c-2.34,1.79-2.44,4.42-.23,5.87,2.21,1.45,5.9,1.17,8.23-.63,2.34-1.79,2.44-4.42.23-5.87-2.21-1.45-5.9-1.17-8.23.63Z"/>
    <path class="cls-1" d="m80.18,64.58c-.15-.07-.3-.13-.46-.19-1.79-.65-3.31-.82-5.24-.68-1.89.2-3.3.63-4.89,1.53-.74.48-3.63,2.82-2.81,3.68.33.09,3.21-1.38,4.06-1.65,1.32-.39,2.38-.54,3.78-.51,1.3.06,2.28.25,3.46.71.03,0,.25.1.29.12,2.41,1.17,2.2,1.93,3.84.8,2.54-1.35-.07-2.79-2.03-3.81Z"/>
    <path class="cls-1" d="m107.36,64.58c.15-.07.3-.13.46-.19,1.79-.65,3.31-.82,5.24-.68,1.89.2,3.3.63,4.89,1.53.74.48,3.63,2.82,2.81,3.68-.33.09-3.21-1.38-4.06-1.65-1.32-.39-2.38-.54-3.78-.51-1.3.06-2.28.25-3.46.71-.03,0-.25.1-.29.12-2.41,1.17-2.2,1.93-3.84.8-2.54-1.35.07-2.79,2.03-3.81Z"/>
    <path class="cls-5" d="m105.69,101.51c.14-.24.44-.32.68-.18.24.14.32.44.18.68-1.02,1.75-2.66,3-4.61,3.83-2.22.95-4.85,1.36-7.39,1.36h-.04c-2.43.02-5.08-.37-7.36-1.34-1.94-.82-3.61-2.07-4.64-3.84-.14-.24-.06-.54.18-.68.24-.14.54-.06.68.18.92,1.57,2.42,2.68,4.17,3.43,2.15.91,4.66,1.28,6.97,1.26h.04c2.42,0,4.92-.38,7.01-1.28,1.76-.75,3.24-1.86,4.14-3.41Z"/>
    <path class="cls-3" d="m91.62,113.1c-.24-.14-.31-.44-.18-.68.14-.24.44-.31.68-.18.68.4,1.55.6,2.42.6s1.72-.2,2.38-.6c.23-.14.54-.07.68.17.14.23.07.54-.17.68-.82.5-1.85.74-2.89.74s-2.08-.25-2.92-.74Z"/>
    <path class="cls-3" d="m93.4,95.14c-.27,0-.5-.22-.5-.5s.22-.5.5-.5c1.19,0,2.61-.01,3.71-.2.9-.15,1.57-.4,1.57-.81,0-1.43-1.45-10.3-1.45-10.33-.04-.27.14-.52.41-.57.27-.04.52.14.57.41,0,.03,1.47,8.99,1.47,10.48,0,1.05-1.02,1.55-2.4,1.79-1.18.2-2.65.21-3.88.21Z"/>
    <path class="cls-3" d="m140.74,93.25c0,.27-.22.5-.5.5s-.5-.22-.5-.5c0-1.51-.26-2.46-.68-2.97-.25-.31-.57-.45-.92-.46-.41,0-.87.14-1.35.42-1.3.74-2.65,2.3-3.4,4.01-.36.82-.67,1.66-.85,2.3.76-.53,1.6-.74,2.31-.67.4.04.77.17,1.07.39.31.23.55.54.67.94.2.68.05,1.59-.68,2.69-.15.23-.46.29-.69.14-.23-.15-.29-.46-.13-.69.55-.81.68-1.43.56-1.85-.05-.18-.16-.32-.29-.42-.16-.11-.36-.18-.59-.2-.64-.06-1.44.21-2.12.89-.18.18-.35.28-.5.32-.4.09-.63-.09-.72-.48v-.03c-.04-.15-.03-.34,0-.58.11-.71.54-1.95,1.05-3.13.83-1.89,2.34-3.64,3.81-4.47.63-.36,1.27-.56,1.86-.54.64.02,1.22.27,1.67.82.56.68.9,1.84.9,3.59Z"/>
    <path class="cls-3" d="m47.79,93.25c0,.27-.22.5-.5.5s-.5-.22-.5-.5c0-1.75.35-2.91.9-3.59.45-.56,1.03-.81,1.67-.82.59-.01,1.23.19,1.86.54,1.47.83,2.99,2.58,3.81,4.47.52,1.18.94,2.43,1.05,3.13.04.23.04.43.01.58v.03c-.09.39-.32.56-.72.48-.16-.03-.32-.14-.5-.32-.67-.68-1.48-.95-2.12-.89-.23.02-.43.09-.59.2-.14.1-.24.24-.29.42-.12.42.01,1.04.56,1.85.15.23.09.53-.14.69-.23.15-.53.09-.69-.14-.73-1.09-.89-2.01-.68-2.69.12-.4.35-.71.67-.94.3-.21.67-.35,1.07-.39.71-.07,1.55.14,2.31.67-.18-.64-.49-1.48-.85-2.3-.75-1.7-2.09-3.27-3.4-4.01-.48-.27-.95-.42-1.35-.42-.35,0-.67.15-.92.46-.42.52-.68,1.46-.68,2.97Z"/>
    <path class="cls-4" d="m50.76,82.78c-4.97-34.46,1.18-69.36,43.01-69.36s47.98,34.9,43.01,69.36c-3.29,9.95-4.09-9.07-4.09-11.25-.02-6.07-5.4-4.85-5.62-18.43-.25-15.35-66.34-15.32-66.59,0-.22,13.58-5.62,12.36-5.62,18.43,0,1.8-1.16,22.1-4.09,11.25Z"/>
    <path class="cls-13" d="m84.73,44.94c-2.19,6.98-17.1,8.31-19.81,3.87-1.26,3.83-11.51,5.17-12.99,2.99-3.07,4-7.46.85-4.6-2.94-4.69-4.89-3.56-11.26,0-14.7-2.12-9.86,6.66-17.17,11.58-14.7-.32-13.43,14.78-12.84,17.64-7.73,12.09-18.77,33.9-12.12,33.68,0,7.15-4.43,20.12-3.92,17.64,7.73,8.53-.62,17.3,2.45,11.58,14.7,4.57,4.91,5.72,11.38-.05,14.7,2.64,3.64-1.38,6.73-4.55,2.94-1.5,2.2-11.73.84-12.99-2.99-2.71,4.44-17.19,4.51-19.81-3.87-2.7,6.49-14.62,6.49-17.33,0Z"/>
    <path class="cls-6" d="m82.01,203.89c.04-12.01.09-32.88-.05-37.74-.07-2.62-7.51-6.4-8.83-10.59-1.91-6.04,2.47-13.59,1.14-19.2-.12.78-.25,1.54-.39,2.3-23.98,7.86-51.91,28.93-51.08,65.23h59.23Z"/>
    <path class="cls-7" d="m74.73,133.76c1.51,15.96,3.34,23.02,7.14,31.42-14.58,1.61-18.97-26.74-7.14-31.42Z"/>
    <path class="cls-6" d="m105.53,203.89c-.05-12.01-.09-32.88.05-37.74.07-2.62,7.51-6.4,8.83-10.59,1.91-6.04-2.47-13.59-1.13-19.2.12.78.25,1.54.39,2.3,23.98,7.86,51.91,28.93,51.09,65.23h-59.23Z"/>
    <path class="cls-7" d="m112.8,133.76c-1.51,15.96-3.34,23.02-7.14,31.42,14.58,1.61,18.97-26.74,7.14-31.42Z"/>
    <path class="cls-2" d="m42.53,183.34c0-.41.34-.74.75-.74.41,0,.74.34.74.75l-.18,20.54c0,.41-.34.74-.75.74-.41,0-.74-.34-.74-.75l.18-20.54Z"/>
    <path class="cls-2" d="m144.76,183.34c0-.41.34-.74.75-.74.41,0,.74.34.74.75l-.18,20.54c0,.41-.34.74-.75.74-.41,0-.74-.34-.74-.75l.18-20.54Z"/>
    <path class="cls-9" d="m82.53,16.18c-.14.23-.45.31-.68.17-.23-.14-.31-.45-.17-.68,1.6-2.65,4.49-5.15,7.69-6.8,3.02-1.56,6.32-2.36,9.11-1.83,5.88,1.12,6.18,4.63,6.18,4.64.03.27-.17.51-.44.54-.27.03-.51-.17-.54-.44,0,0-.23-2.78-5.38-3.76-2.56-.49-5.64.28-8.47,1.74-3.04,1.57-5.78,3.94-7.29,6.43Z"/>
    <path class="cls-9" d="m66.5,20.65c-.07.26-.35.42-.61.34-.26-.07-.42-.35-.34-.61.57-2.01,1.65-3.53,3-4.55.96-.73,2.04-1.2,3.18-1.4,1.13-.21,2.31-.15,3.45.17,1.63.46,3.17,1.48,4.37,3.06.17.22.12.53-.09.69-.22.16-.53.12-.69-.09-1.07-1.4-2.43-2.3-3.86-2.71-.99-.28-2.02-.33-3-.15-.99.18-1.93.59-2.76,1.22-1.18.9-2.13,2.25-2.64,4.04Z"/>
    <path class="cls-9" d="m109.02,19.57c-.2.18-.52.16-.7-.04-.18-.2-.16-.52.04-.7,2.97-2.63,6.1-4.11,8.71-4.51,1.39-.21,2.65-.11,3.67.28,1.07.41,1.88,1.14,2.33,2.17.42.96.52,2.18.21,3.65-.06.27-.32.44-.59.38-.27-.06-.44-.32-.38-.59.27-1.25.19-2.27-.15-3.05-.34-.78-.96-1.33-1.78-1.64-.86-.33-1.95-.41-3.17-.22-2.44.37-5.38,1.77-8.2,4.27Z"/>
    <path class="cls-9" d="m85.67,37.33c-.12-.24-.03-.54.21-.67.24-.12.54-.03.67.21.96,1.86,2.37,3.09,3.94,3.72.97.39,2,.55,3.02.49,1.03-.06,2.05-.33,3-.82,1.66-.85,3.09-2.35,3.93-4.46.1-.25.39-.38.64-.27.25.1.38.39.28.64-.94,2.35-2.54,4.02-4.4,4.98-1.07.55-2.23.86-3.4.93-1.17.06-2.34-.12-3.45-.56-1.79-.71-3.38-2.1-4.45-4.18Z"/>
    <path class="cls-9" d="m118.93,38.32c.12-.24.42-.34.67-.21.24.12.34.42.21.67-1.07,2.08-2.67,3.47-4.45,4.18-1.1.44-2.28.63-3.45.56-1.17-.06-2.32-.38-3.4-.93-1.86-.95-3.46-2.63-4.4-4.98-.1-.25.02-.54.28-.64.25-.1.54.02.64.27.85,2.11,2.28,3.61,3.93,4.46.95.49,1.97.76,3,.82,1.02.06,2.06-.11,3.02-.49,1.57-.63,2.99-1.86,3.94-3.72Z"/>
  </g>
</svg>